mtllib materials.mtl
v 0.2330344 -1.072772 0.2333717
v -0.2369657 -1.072772 0.2333714
v -0.2369651 0.9172282 0.2333723
v 0.2330352 0.9172282 0.2333725
v 0.2330346 -1.072772 -0.2366284
v 0.2330354 0.9172282 -0.2366279
v -0.2369649 0.9172285 -0.2366281
v -0.2369655 -1.072772 -0.2366287
v -0.192315 0.9172287 0.1887224
v 0.1883853 0.9172285 0.1887225
v -0.1923149 0.9172287 -0.191978
v 0.1883855 0.9172287 -0.1919779
v -0.1923152 1.007228 0.188723
v 0.1883855 1.007228 0.188723
v -0.192315 1.007229 -0.1919777
v 0.1883858 1.007228 -0.1919775
v -0.1561486 0.9972286 0.1525565
v 0.1522191 0.9972286 0.1525565
v -0.1561484 0.9972289 -0.1558111
v 0.1522193 0.9972286 -0.155811
v -0.1561486 0.9572287 0.1525565
v 0.1522192 0.9572287 0.1525567
v -0.1561484 0.9572289 -0.1558111
v 0.1522195 0.9572287 -0.1558111
v 0.2630349 -1.077771 0.2383717
v 0.1830349 -1.077771 0.2383715
v 0.1830348 0.9122288 0.2383717
v 0.263035 0.9122288 0.2383718
v 0.263035 -1.077771 0.1883717
v 0.2630351 0.9122288 0.1883714
v 0.1830347 0.9122288 0.1883714
v 0.1830348 -1.077771 0.1883715
v 0.2630354 -1.077772 -0.1816279
v 0.1830354 -1.077772 -0.1816281
v 0.1830353 0.9122286 -0.181628
v 0.2630355 0.9122286 -0.1816278
v 0.2630354 -1.077772 -0.2316279
v 0.2630356 0.9122286 -0.2316282
v 0.1830352 0.9122286 -0.2316283
v 0.1830353 -1.077772 -0.2316282
v 0.1080344 0.9372282 0.09837162
v 0.06803447 0.9372282 0.09837162
v 0.06803447 0.9772282 0.09837162
v 0.1080344 0.9772282 0.09837162
v 0.1080344 0.9372282 0.05837166
v 0.1080344 0.9772282 0.05837166
v 0.06803447 0.9772282 0.05837166
v 0.06803447 0.9372282 0.05837166
v -0.04696548 0.9222281 -0.1166284
v -0.04696548 0.9222281 -0.04662848
v -0.04696548 0.9922283 -0.04662848
v -0.04696548 0.9922283 -0.1166284
v -0.1169655 0.9222281 -0.1166284
v -0.1169655 0.9922283 -0.1166284
v -0.1169655 0.9922283 -0.04662848
v -0.1169655 0.9222281 -0.04662848
v 0.2630349 -1.077772 -0.07162845
v 0.1830349 -1.077772 -0.07162869
v 0.1826478 0.9137325 -0.07130599
v 0.262648 0.9137325 -0.07130575
v 0.263035 -1.077772 -0.1216285
v 0.262648 0.9137325 -0.1213063
v 0.1826476 0.9137325 -0.1213064
v 0.1830348 -1.077772 -0.1216288
v 0.2630354 -1.077771 0.03837216
v 0.1830354 -1.077771 0.03837192
v 0.1830353 0.9122288 0.03837204
v 0.2630355 0.9122288 0.03837228
v 0.2630354 -1.077771 -0.01162791
v 0.2630356 0.9122288 -0.01162815
v 0.1830352 0.9122288 -0.01162827
v 0.1830353 -1.077771 -0.01162815
v 0.2630354 -1.077772 0.1383717
v 0.1830354 -1.077772 0.1383715
v 0.1830353 0.9122286 0.1383716
v 0.2630355 0.9122286 0.1383718
v 0.2630354 -1.077772 0.08837163
v 0.2630356 0.9122286 0.0883714
v 0.1830352 0.9122286 0.08837134
v 0.1830353 -1.077772 0.08837146
v -0.1869652 -1.07702 -0.2714351
v -0.1869653 -1.07702 -0.1914351
v -0.1869648 0.9129806 -0.1914353
v -0.1869646 0.9129806 -0.2714356
v -0.2369651 -1.07702 -0.2714351
v -0.236965 0.9129806 -0.2714356
v -0.2369651 0.9129806 -0.1914352
v -0.2369654 -1.07702 -0.191435
v -0.07696575 -1.07702 -0.2714347
v -0.07696587 -1.07702 -0.1914346
v -0.07664293 0.9144845 -0.1910478
v -0.07664269 0.9144845 -0.2710481
v -0.1269657 -1.07702 -0.2714347
v -0.1266431 0.9144845 -0.2710481
v -0.1266432 0.9144845 -0.1910478
v -0.1269659 -1.07702 -0.1914345
v 0.03303486 -1.077019 -0.2714351
v 0.03303462 -1.077019 -0.1914351
v 0.03303516 0.9129806 -0.1914353
v 0.03303534 0.9129806 -0.2714356
v -0.01696521 -1.077019 -0.2714351
v -0.01696509 0.9129806 -0.2714356
v -0.01696515 0.9129806 -0.1914352
v -0.01696539 -1.077019 -0.191435
v 0.1330344 -1.07702 -0.2714351
v 0.1330342 -1.07702 -0.1914351
v 0.1330347 0.9129806 -0.1914353
v 0.1330349 0.9129806 -0.2714356
v 0.08303434 -1.07702 -0.2714351
v 0.08303446 0.9129806 -0.2714356
v 0.0830344 0.9129806 -0.1914352
v 0.08303416 -1.07702 -0.191435
v 0.2330344 -1.077019 -0.2714347
v 0.2330342 -1.077019 -0.1914346
v 0.2330347 0.9129806 -0.1914349
v 0.2330349 0.9129806 -0.2714351
v 0.1830344 -1.077019 -0.2714347
v 0.1830345 0.9129806 -0.2714351
v 0.1830344 0.9129806 -0.1914347
v 0.1830342 -1.077019 -0.1914345
v 0.2330344 -1.077019 0.1881781
v 0.2330342 -1.077019 0.2681781
v 0.2330347 0.9129806 0.2681779
v 0.2330349 0.9129806 0.1881776
v 0.1830344 -1.077019 0.1881781
v 0.1830345 0.9129806 0.1881776
v 0.1830344 0.9129806 0.268178
v 0.1830342 -1.077019 0.2681782
v -0.1869652 -1.07702 0.1881776
v -0.1869653 -1.07702 0.2681776
v -0.1869648 0.9129806 0.2681774
v -0.1869646 0.9129806 0.1881772
v -0.2369651 -1.07702 0.1881776
v -0.236965 0.9129806 0.1881771
v -0.2369651 0.9129806 0.2681775
v -0.2369654 -1.07702 0.2681777
v -0.07696575 -1.07702 0.1881781
v -0.07696587 -1.07702 0.2681781
v -0.07664293 0.9144845 0.2685649
v -0.07664269 0.9144845 0.1885647
v -0.1269657 -1.07702 0.1881781
v -0.1266431 0.9144845 0.1885647
v -0.1266432 0.9144845 0.268565
v -0.1269659 -1.07702 0.2681782
v 0.03303486 -1.077019 0.1881776
v 0.03303462 -1.077019 0.2681776
v 0.03303516 0.9129806 0.2681774
v 0.03303534 0.9129806 0.1881772
v -0.01696521 -1.077019 0.1881776
v -0.01696509 0.9129806 0.1881771
v -0.01696515 0.9129806 0.2681775
v -0.01696539 -1.077019 0.2681777
v 0.1330344 -1.07702 0.1881776
v 0.1330342 -1.07702 0.2681776
v 0.1330347 0.9129806 0.2681774
v 0.1330349 0.9129806 0.1881772
v 0.08303434 -1.07702 0.1881776
v 0.08303446 0.9129806 0.1881771
v 0.0830344 0.9129806 0.2681775
v 0.08303416 -1.07702 0.2681777
v -0.1871263 -1.07702 -0.191628
v -0.2671264 -1.07702 -0.1916282
v -0.2671261 0.9129806 -0.1916277
v -0.1871259 0.9129806 -0.1916275
v -0.1871263 -1.07702 -0.2416281
v -0.1871259 0.9129806 -0.2416279
v -0.2671263 0.9129806 -0.2416281
v -0.2671264 -1.07702 -0.2416283
v -0.1871268 -1.07702 -0.08162856
v -0.2671269 -1.07702 -0.08162868
v -0.2675137 0.9144845 -0.08130574
v -0.1875134 0.9144845 -0.0813055
v -0.1871268 -1.07702 -0.1316285
v -0.1875134 0.9144845 -0.1313059
v -0.2675137 0.9144845 -0.1313061
v -0.2671269 -1.07702 -0.1316288
v -0.1871263 -1.077019 0.02837205
v -0.2671264 -1.077019 0.02837193
v -0.2671261 0.9129808 0.02837241
v -0.1871259 0.9129808 0.02837253
v -0.1871263 -1.077019 -0.0216279
v -0.1871259 0.9129808 -0.02162778
v -0.2671263 0.9129808 -0.0216279
v -0.2671264 -1.077019 -0.02162814
v -0.1871263 -1.07702 0.1283717
v -0.2671264 -1.07702 0.1283715
v -0.2671261 0.9129806 0.128372
v -0.1871259 0.9129806 0.1283721
v -0.1871263 -1.07702 0.07837164
v -0.1871259 0.9129806 0.07837176
v -0.2671263 0.9129806 0.07837164
v -0.2671264 -1.07702 0.07837141
v -0.1871268 -1.077019 0.2283716
v -0.2671269 -1.077019 0.2283714
v -0.2671266 0.9129808 0.2283719
v -0.1871263 0.9129808 0.228372
v -0.1871268 -1.077019 0.1783715
v -0.1871263 0.9129808 0.1783717
v -0.2671267 0.9129808 0.1783715
v -0.2671269 -1.077019 0.1783713
v 0.03303552 0.9572287 -0.03662717
v 0.03303552 0.9572287 0.03337276
v 0.03303552 1.027229 0.03337276
v 0.03303552 1.027229 -0.03662717
v -0.03696454 0.9572287 -0.03662717
v -0.03696454 1.027229 -0.03662717
v -0.03696454 1.027229 0.03337276
v -0.03696454 0.9572287 0.03337276
v 0.01477593 1.107229 0.01511323
v 0.01477593 1.107229 -0.01836753
v -0.01870483 1.107229 0.01511323
v -0.01870489 1.107229 -0.01836753
v 0.003345191 1.357229 0.003682971
v 0.003345191 1.357229 -0.006936193
v -0.007273972 1.357229 0.003682971
v -0.007274032 1.357229 -0.006936193
v -0.326966 -1.722772 0.3233709
v -0.3269657 -1.072772 0.3233712
v 0.3230342 -1.072772 0.3233715
v 0.323034 -1.722772 0.3233713
v -0.3269656 -1.722772 -0.326629
v 0.3230343 -1.722772 -0.3266287
v 0.3230346 -1.072772 -0.3266284
v -0.3269654 -1.072772 -0.3266288
vn -4.768373E-07 -3.496911E-07 1
vn 4.768373E-07 3.496911E-07 -1
vn -3.49691E-07 -1 -3.496912E-07
vn 4.134391E-07 1 5.689431E-06
vn 1 -3.496912E-07 4.768372E-07
vn -1 3.496912E-07 -4.768372E-07
vn -8.894678E-06 1 3.49687E-07
vn 3.711554E-07 1 -4.990019E-06
vn 5.418874E-06 1 3.496935E-07
vn -1.245646E-07 -1.557976E-06 1
vn -1 3.496912E-07 -5.284969E-07
vn 3.594133E-07 1.207324E-06 -1
vn 1 -7.912072E-07 5.27047E-07
vn 6.15104E-07 0.9638368 -0.2664934
vn 0.266493 0.9638368 4.796541E-07
vn 3.125659E-07 0.9638367 0.2664932
vn -0.2664934 0.9638368 1.930013E-07
vn 9.025503E-08 -1.044983E-06 -1
vn 1 1.470146E-07 4.812146E-07
vn -3.801919E-07 -3.466041E-07 1
vn -1 -1.140426E-06 -6.644372E-07
vn 3.49691E-07 1 3.496912E-07
vn -1.192093E-07 1.59809E-14 1
vn 1.192093E-07 -1.59809E-14 -1
vn 8.143375E-18 -1 1.59809E-14
vn -8.143375E-18 1 -1.59809E-14
vn 1 8.143375E-18 1.192093E-07
vn -1 -8.143375E-18 -1.192093E-07
vn -1.192093E-07 1.59809E-14 1
vn 1.192093E-07 -1.59809E-14 -1
vn 8.143375E-18 -1 1.59809E-14
vn -8.143375E-18 1 -1.59809E-14
vn 1 8.143375E-18 1.192093E-07
vn -1 -8.143375E-18 -1.192093E-07
vn -1.192093E-07 1.770041E-15 1
vn 1.192093E-07 -1.770041E-15 -1
vn 0 -1 1.770041E-15
vn 0 1 -1.770041E-15
vn 1 0 1.192093E-07
vn -1 0 -1.192093E-07
vn 1 0 0
vn -1 0 0
vn 0 -1 0
vn 0 1 0
vn 0 0 -1
vn 0 0 1
vn -2.354406E-06 -0.0001619848 1
vn 1.609288E-06 0.0001618079 -1
vn 8.143375E-18 -1 1.59809E-14
vn -8.143375E-18 1 -1.59809E-14
vn 1 0.0001942573 8.2426E-08
vn -1 -0.000194407 1.366105E-06
vn -1.192093E-07 1.59809E-14 1
vn 1.192093E-07 -1.59809E-14 -1
vn 8.143375E-18 -1 1.59809E-14
vn -8.143375E-18 1 -1.59809E-14
vn 1 8.143375E-18 1.192093E-07
vn -1 -8.143375E-18 -1.192093E-07
vn -1.192093E-07 1.59809E-14 1
vn 1.192093E-07 -1.59809E-14 -1
vn 8.143375E-18 -1 1.59809E-14
vn -8.143375E-18 1 -1.59809E-14
vn 1 8.143375E-18 1.192093E-07
vn -1 -8.143375E-18 -1.192093E-07
vn 1 -1.748456E-07 1.528549E-14
vn -1 1.748456E-07 -1.528549E-14
vn -1.748456E-07 -1 1.748456E-07
vn 1.748456E-07 1 -1.748456E-07
vn -1.528549E-14 -1.748456E-07 -1
vn 1.528549E-14 1.748456E-07 1
vn 1 -0.0001621597 2.235225E-06
vn -1 0.0001619827 -1.490107E-06
vn -1.748456E-07 -1 1.748456E-07
vn 1.748456E-07 1 -1.748456E-07
vn -3.674934E-08 0.0001940824 -1
vn 1.48528E-06 -0.0001942322 1
vn 1 -1.748456E-07 1.528549E-14
vn -1 1.748456E-07 -1.528549E-14
vn -1.748456E-07 -1 1.748456E-07
vn 1.748456E-07 1 -1.748456E-07
vn -1.528549E-14 -1.748456E-07 -1
vn 1.528549E-14 1.748456E-07 1
vn 1 -1.748456E-07 1.528549E-14
vn -1 1.748456E-07 -1.528549E-14
vn -1.748456E-07 -1 1.748456E-07
vn 1.748456E-07 1 -1.748456E-07
vn -1.528549E-14 -1.748456E-07 -1
vn 1.528549E-14 1.748456E-07 1
vn 1 -1.748456E-07 1.528549E-14
vn -1 1.748456E-07 -1.528549E-14
vn -1.748456E-07 -1 1.748456E-07
vn 1.748456E-07 1 -1.748456E-07
vn -1.528549E-14 -1.748456E-07 -1
vn 1.528549E-14 1.748456E-07 1
vn 1 -1.748456E-07 1.528549E-14
vn -1 1.748456E-07 -1.528549E-14
vn -1.748456E-07 -1 1.748456E-07
vn 1.748456E-07 1 -1.748456E-07
vn -1.528549E-14 -1.748456E-07 -1
vn 1.528549E-14 1.748456E-07 1
vn 1 -1.748456E-07 1.528549E-14
vn -1 1.748456E-07 -1.528549E-14
vn -1.748456E-07 -1 1.748456E-07
vn 1.748456E-07 1 -1.748456E-07
vn -1.528549E-14 -1.748456E-07 -1
vn 1.528549E-14 1.748456E-07 1
vn 1 -0.0001621597 2.235225E-06
vn -1 0.0001619827 -1.490107E-06
vn -1.748456E-07 -1 1.748456E-07
vn 1.748456E-07 1 -1.748456E-07
vn -3.674934E-08 0.0001940824 -1
vn 1.48528E-06 -0.0001942322 1
vn 1 -1.748456E-07 1.528549E-14
vn -1 1.748456E-07 -1.528549E-14
vn -1.748456E-07 -1 1.748456E-07
vn 1.748456E-07 1 -1.748456E-07
vn -1.528549E-14 -1.748456E-07 -1
vn 1.528549E-14 1.748456E-07 1
vn 1 -1.748456E-07 1.528549E-14
vn -1 1.748456E-07 -1.528549E-14
vn -1.748456E-07 -1 1.748456E-07
vn 1.748456E-07 1 -1.748456E-07
vn -1.528549E-14 -1.748456E-07 -1
vn 1.528549E-14 1.748456E-07 1
vn -1.192093E-07 -1.748456E-07 1
vn 1.192093E-07 1.748456E-07 -1
vn -1.748456E-07 -1 -1.748456E-07
vn 1.748456E-07 1 1.748456E-07
vn 1 -1.748456E-07 1.192093E-07
vn -1 1.748456E-07 -1.192093E-07
vn -2.354435E-06 -0.0001621597 1
vn 1.609316E-06 0.0001619827 -1
vn -1.748456E-07 -1 -1.748456E-07
vn 1.748456E-07 1 1.748456E-07
vn 1 0.0001940824 8.245996E-08
vn -1 -0.0001942322 1.366071E-06
vn -1.192093E-07 -1.748456E-07 1
vn 1.192093E-07 1.748456E-07 -1
vn -1.748456E-07 -1 -1.748456E-07
vn 1.748456E-07 1 1.748456E-07
vn 1 -1.748456E-07 1.192093E-07
vn -1 1.748456E-07 -1.192093E-07
vn -1.192093E-07 -1.748456E-07 1
vn 1.192093E-07 1.748456E-07 -1
vn -1.748456E-07 -1 -1.748456E-07
vn 1.748456E-07 1 1.748456E-07
vn 1 -1.748456E-07 1.192093E-07
vn -1 1.748456E-07 -1.192093E-07
vn -1.192093E-07 -1.748456E-07 1
vn 1.192093E-07 1.748456E-07 -1
vn -1.748456E-07 -1 -1.748456E-07
vn 1.748456E-07 1 1.748456E-07
vn 1 -1.748456E-07 1.192093E-07
vn -1 1.748456E-07 -1.192093E-07
vn 1 0 0
vn -1 0 0
vn 0 -1 0
vn 0.9749278 0.2225212 -9.394353E-09
vn 0 0 -1
vn 0 0 1
vn 1.677021E-08 0.2225212 0.9749278
vn -0.9749276 0.2225223 5.632673E-07
vn 1.174272E-08 0.2225226 -0.9749275
vn 0.9989563 0.04567524 -1.631676E-08
vn 0 0.04567334 0.9989564
vn -0.9989563 0.04567572 2.679524E-06
vn 0 0.04567762 -0.9989563
vn 0 1 0
vn -4.768372E-07 -2.980232E-07 1
vn 4.768372E-07 2.980232E-07 -1
vn -0.9999999 3.576279E-07 -5.066395E-07
vn 0.9999999 -3.576279E-07 5.066395E-07
vn -3.874302E-07 -1 -3.576279E-07
vn 3.874302E-07 1 3.576279E-07
usemtl mat21
f 4//1 3//1 2//1 1//1
f 8//2 7//2 6//2 5//2
f 2//3 8//3 5//3 1//3
f 10//4 9//4 3//4 4//4
f 5//5 6//5 4//5 1//5
f 3//6 7//6 8//6 2//6
f 9//7 11//7 7//7 3//7
f 11//8 12//8 6//8 7//8
f 12//9 10//9 4//9 6//9
f 14//10 13//10 9//10 10//10
f 13//11 15//11 11//11 9//11
f 15//12 16//12 12//12 11//12
f 16//13 14//13 10//13 12//13
f 18//14 17//14 13//14 14//14
f 17//15 19//15 15//15 13//15
f 19//16 20//16 16//16 15//16
f 20//17 18//17 14//17 16//17
f 22//18 21//18 17//18 18//18
f 21//19 23//19 19//19 17//19
f 23//20 24//20 20//20 19//20
f 24//21 22//21 18//21 20//21
f 24//22 23//22 21//22 22//22
usemtl mat15
f 28//23 27//23 26//23 25//23
f 32//24 31//24 30//24 29//24
f 26//25 32//25 29//25 25//25
f 30//26 31//26 27//26 28//26
f 29//27 30//27 28//27 25//27
f 27//28 31//28 32//28 26//28
f 36//29 35//29 34//29 33//29
f 40//30 39//30 38//30 37//30
f 34//31 40//31 37//31 33//31
f 38//32 39//32 35//32 36//32
f 37//33 38//33 36//33 33//33
f 35//34 39//34 40//34 34//34
f 44//35 43//35 42//35 41//35
f 48//36 47//36 46//36 45//36
f 42//37 48//37 45//37 41//37
f 46//38 47//38 43//38 44//38
f 45//39 46//39 44//39 41//39
f 43//40 47//40 48//40 42//40
f 52//41 51//41 50//41 49//41
f 56//42 55//42 54//42 53//42
f 50//43 56//43 53//43 49//43
f 54//44 55//44 51//44 52//44
f 53//45 54//45 52//45 49//45
f 51//46 55//46 56//46 50//46
f 60//47 59//47 58//47 57//47
f 64//48 63//48 62//48 61//48
f 58//49 64//49 61//49 57//49
f 62//50 63//50 59//50 60//50
f 61//51 62//51 60//51 57//51
f 59//52 63//52 64//52 58//52
f 68//53 67//53 66//53 65//53
f 72//54 71//54 70//54 69//54
f 66//55 72//55 69//55 65//55
f 70//56 71//56 67//56 68//56
f 69//57 70//57 68//57 65//57
f 67//58 71//58 72//58 66//58
f 76//59 75//59 74//59 73//59
f 80//60 79//60 78//60 77//60
f 74//61 80//61 77//61 73//61
f 78//62 79//62 75//62 76//62
f 77//63 78//63 76//63 73//63
f 75//64 79//64 80//64 74//64
f 84//65 83//65 82//65 81//65
f 88//66 87//66 86//66 85//66
f 82//67 88//67 85//67 81//67
f 86//68 87//68 83//68 84//68
f 85//69 86//69 84//69 81//69
f 83//70 87//70 88//70 82//70
f 92//71 91//71 90//71 89//71
f 96//72 95//72 94//72 93//72
f 90//73 96//73 93//73 89//73
f 94//74 95//74 91//74 92//74
f 93//75 94//75 92//75 89//75
f 91//76 95//76 96//76 90//76
f 100//77 99//77 98//77 97//77
f 104//78 103//78 102//78 101//78
f 98//79 104//79 101//79 97//79
f 102//80 103//80 99//80 100//80
f 101//81 102//81 100//81 97//81
f 99//82 103//82 104//82 98//82
f 108//83 107//83 106//83 105//83
f 112//84 111//84 110//84 109//84
f 106//85 112//85 109//85 105//85
f 110//86 111//86 107//86 108//86
f 109//87 110//87 108//87 105//87
f 107//88 111//88 112//88 106//88
f 116//89 115//89 114//89 113//89
f 120//90 119//90 118//90 117//90
f 114//91 120//91 117//91 113//91
f 118//92 119//92 115//92 116//92
f 117//93 118//93 116//93 113//93
f 115//94 119//94 120//94 114//94
f 124//95 123//95 122//95 121//95
f 128//96 127//96 126//96 125//96
f 122//97 128//97 125//97 121//97
f 126//98 127//98 123//98 124//98
f 125//99 126//99 124//99 121//99
f 123//100 127//100 128//100 122//100
f 132//101 131//101 130//101 129//101
f 136//102 135//102 134//102 133//102
f 130//103 136//103 133//103 129//103
f 134//104 135//104 131//104 132//104
f 133//105 134//105 132//105 129//105
f 131//106 135//106 136//106 130//106
f 140//107 139//107 138//107 137//107
f 144//108 143//108 142//108 141//108
f 138//109 144//109 141//109 137//109
f 142//110 143//110 139//110 140//110
f 141//111 142//111 140//111 137//111
f 139//112 143//112 144//112 138//112
f 148//113 147//113 146//113 145//113
f 152//114 151//114 150//114 149//114
f 146//115 152//115 149//115 145//115
f 150//116 151//116 147//116 148//116
f 149//117 150//117 148//117 145//117
f 147//118 151//118 152//118 146//118
f 156//119 155//119 154//119 153//119
f 160//120 159//120 158//120 157//120
f 154//121 160//121 157//121 153//121
f 158//122 159//122 155//122 156//122
f 157//123 158//123 156//123 153//123
f 155//124 159//124 160//124 154//124
f 164//125 163//125 162//125 161//125
f 168//126 167//126 166//126 165//126
f 162//127 168//127 165//127 161//127
f 166//128 167//128 163//128 164//128
f 165//129 166//129 164//129 161//129
f 163//130 167//130 168//130 162//130
f 172//131 171//131 170//131 169//131
f 176//132 175//132 174//132 173//132
f 170//133 176//133 173//133 169//133
f 174//134 175//134 171//134 172//134
f 173//135 174//135 172//135 169//135
f 171//136 175//136 176//136 170//136
f 180//137 179//137 178//137 177//137
f 184//138 183//138 182//138 181//138
f 178//139 184//139 181//139 177//139
f 182//140 183//140 179//140 180//140
f 181//141 182//141 180//141 177//141
f 179//142 183//142 184//142 178//142
f 188//143 187//143 186//143 185//143
f 192//144 191//144 190//144 189//144
f 186//145 192//145 189//145 185//145
f 190//146 191//146 187//146 188//146
f 189//147 190//147 188//147 185//147
f 187//148 191//148 192//148 186//148
f 196//149 195//149 194//149 193//149
f 200//150 199//150 198//150 197//150
f 194//151 200//151 197//151 193//151
f 198//152 199//152 195//152 196//152
f 197//153 198//153 196//153 193//153
f 195//154 199//154 200//154 194//154
f 204//155 203//155 202//155 201//155
f 208//156 207//156 206//156 205//156
f 202//157 208//157 205//157 201//157
f 210//158 209//158 203//158 204//158
f 205//159 206//159 204//159 201//159
f 203//160 207//160 208//160 202//160
f 209//161 211//161 207//161 203//161
f 211//162 212//162 206//162 207//162
f 212//163 210//163 204//163 206//163
f 214//164 213//164 209//164 210//164
f 213//165 215//165 211//165 209//165
f 215//166 216//166 212//166 211//166
f 216//167 214//167 210//167 212//167
f 216//168 215//168 213//168 214//168
f 220//169 219//169 218//169 217//169
f 224//170 223//170 222//170 221//170
f 218//171 224//171 221//171 217//171
f 222//172 223//172 219//172 220//172
f 221//173 222//173 220//173 217//173
f 219//174 223//174 224//174 218//174
